<mxfile host="65bd71144e">
    <diagram id="uzYapm8pENezA7-x66sT" name="HA Cluster Architecture">
        <mxGraphModel dx="259" dy="534" grid="1" gridSize="10" guides="1" tooltips="1" connect="1" arrows="1" fold="1" page="1" pageScale="1" pageWidth="827" pageHeight="1169" math="0" shadow="0">
            <root>
                <mxCell id="0"/>
                <mxCell id="1" parent="0"/>
                <mxCell id="2ZWv6kr2MvJarzzw5uwA-44" style="edgeStyle=orthogonalEdgeStyle;rounded=0;orthogonalLoop=1;jettySize=auto;html=1;exitX=0.5;exitY=1;exitDx=0;exitDy=0;" parent="1" source="2ZWv6kr2MvJarzzw5uwA-35" target="2ZWv6kr2MvJarzzw5uwA-33" edge="1">
                    <mxGeometry relative="1" as="geometry">
                        <mxPoint x="360" y="290" as="targetPoint"/>
                    </mxGeometry>
                </mxCell>
                <mxCell id="2ZWv6kr2MvJarzzw5uwA-35" value="kubeproxy" style="rounded=0;whiteSpace=wrap;html=1;fontColor=#808080;" parent="1" vertex="1">
                    <mxGeometry x="180" y="190" width="120" height="20" as="geometry"/>
                </mxCell>
                <mxCell id="2ZWv6kr2MvJarzzw5uwA-36" value="kubelet" style="rounded=0;whiteSpace=wrap;html=1;fontColor=#808080;" parent="1" vertex="1">
                    <mxGeometry x="180" y="170" width="120" height="20" as="geometry"/>
                </mxCell>
                <mxCell id="2ZWv6kr2MvJarzzw5uwA-43" style="edgeStyle=orthogonalEdgeStyle;rounded=0;orthogonalLoop=1;jettySize=auto;html=1;" parent="1" source="2ZWv6kr2MvJarzzw5uwA-37" target="2ZWv6kr2MvJarzzw5uwA-33" edge="1">
                    <mxGeometry relative="1" as="geometry"/>
                </mxCell>
                <mxCell id="2ZWv6kr2MvJarzzw5uwA-37" value="kubeproxy" style="rounded=0;whiteSpace=wrap;html=1;fontColor=#808080;" parent="1" vertex="1">
                    <mxGeometry x="324" y="190" width="120" height="20" as="geometry"/>
                </mxCell>
                <mxCell id="2ZWv6kr2MvJarzzw5uwA-38" value="kubelet" style="rounded=0;whiteSpace=wrap;html=1;fontColor=#808080;" parent="1" vertex="1">
                    <mxGeometry x="324" y="170" width="120" height="20" as="geometry"/>
                </mxCell>
                <mxCell id="2ZWv6kr2MvJarzzw5uwA-42" style="edgeStyle=orthogonalEdgeStyle;rounded=0;orthogonalLoop=1;jettySize=auto;html=1;exitX=0.5;exitY=1;exitDx=0;exitDy=0;" parent="1" source="2ZWv6kr2MvJarzzw5uwA-39" target="2ZWv6kr2MvJarzzw5uwA-33" edge="1">
                    <mxGeometry relative="1" as="geometry">
                        <mxPoint x="360" y="280" as="targetPoint"/>
                    </mxGeometry>
                </mxCell>
                <mxCell id="2ZWv6kr2MvJarzzw5uwA-39" value="kubeproxy" style="rounded=0;whiteSpace=wrap;html=1;fontColor=#808080;" parent="1" vertex="1">
                    <mxGeometry x="460" y="190" width="120" height="20" as="geometry"/>
                </mxCell>
                <mxCell id="2ZWv6kr2MvJarzzw5uwA-40" value="kubelet" style="rounded=0;whiteSpace=wrap;html=1;fontColor=#808080;" parent="1" vertex="1">
                    <mxGeometry x="460" y="170" width="120" height="20" as="geometry"/>
                </mxCell>
                <mxCell id="2ZWv6kr2MvJarzzw5uwA-45" value="&lt;div&gt;worker node1&lt;/div&gt;&lt;div&gt;192.169.100.25&lt;br&gt;&lt;/div&gt;" style="text;html=1;align=center;verticalAlign=middle;resizable=0;points=[];autosize=1;strokeColor=none;fillColor=none;" parent="1" vertex="1">
                    <mxGeometry x="180" y="135" width="100" height="30" as="geometry"/>
                </mxCell>
                <mxCell id="2ZWv6kr2MvJarzzw5uwA-46" value="&lt;div&gt;worker node2&lt;/div&gt;&lt;div&gt;192.169.100.26&lt;/div&gt;" style="text;html=1;align=center;verticalAlign=middle;resizable=0;points=[];autosize=1;strokeColor=none;fillColor=none;" parent="1" vertex="1">
                    <mxGeometry x="325" y="130" width="100" height="30" as="geometry"/>
                </mxCell>
                <mxCell id="2ZWv6kr2MvJarzzw5uwA-47" value="&lt;div&gt;worker node2&lt;/div&gt;&lt;div&gt;192.169.100.27&lt;/div&gt;" style="text;html=1;align=center;verticalAlign=middle;resizable=0;points=[];autosize=1;strokeColor=none;fillColor=none;" parent="1" vertex="1">
                    <mxGeometry x="475" y="133" width="100" height="30" as="geometry"/>
                </mxCell>
                <mxCell id="2ZWv6kr2MvJarzzw5uwA-48" value="" style="group;container=1;" parent="1" vertex="1" connectable="0">
                    <mxGeometry x="187" y="290" width="400" height="186" as="geometry">
                        <mxRectangle x="187" y="290" width="50" height="40" as="alternateBounds"/>
                    </mxGeometry>
                </mxCell>
                <mxCell id="2ZWv6kr2MvJarzzw5uwA-30" value="" style="group" parent="2ZWv6kr2MvJarzzw5uwA-48" vertex="1" connectable="0">
                    <mxGeometry x="10" y="30" width="120" height="156" as="geometry"/>
                </mxCell>
                <mxCell id="2ZWv6kr2MvJarzzw5uwA-5" value="&lt;div&gt;master1&lt;br&gt;&lt;/div&gt;&lt;div&gt;192.169.100.21&lt;/div&gt;" style="text;html=1;align=center;verticalAlign=middle;resizable=0;points=[];autosize=1;strokeColor=none;fillColor=none;" parent="2ZWv6kr2MvJarzzw5uwA-30" vertex="1">
                    <mxGeometry x="11" y="105" width="100" height="30" as="geometry"/>
                </mxCell>
                <mxCell id="2ZWv6kr2MvJarzzw5uwA-13" value="scheduler" style="rounded=0;whiteSpace=wrap;html=1;" parent="2ZWv6kr2MvJarzzw5uwA-30" vertex="1">
                    <mxGeometry y="60" width="120" height="20" as="geometry"/>
                </mxCell>
                <mxCell id="2ZWv6kr2MvJarzzw5uwA-14" value="c-c-m" style="rounded=0;whiteSpace=wrap;html=1;" parent="2ZWv6kr2MvJarzzw5uwA-30" vertex="1">
                    <mxGeometry y="40" width="120" height="20" as="geometry"/>
                </mxCell>
                <mxCell id="2ZWv6kr2MvJarzzw5uwA-15" value="etcd" style="rounded=0;whiteSpace=wrap;html=1;" parent="2ZWv6kr2MvJarzzw5uwA-30" vertex="1">
                    <mxGeometry y="80" width="120" height="20" as="geometry"/>
                </mxCell>
                <mxCell id="2ZWv6kr2MvJarzzw5uwA-16" value="haproxy" style="rounded=0;whiteSpace=wrap;html=1;" parent="2ZWv6kr2MvJarzzw5uwA-30" vertex="1">
                    <mxGeometry y="20" width="120" height="20" as="geometry"/>
                </mxCell>
                <mxCell id="2ZWv6kr2MvJarzzw5uwA-17" value="keepalived" style="rounded=0;whiteSpace=wrap;html=1;" parent="2ZWv6kr2MvJarzzw5uwA-30" vertex="1">
                    <mxGeometry width="120" height="20" as="geometry"/>
                </mxCell>
                <mxCell id="2ZWv6kr2MvJarzzw5uwA-31" value="" style="group" parent="2ZWv6kr2MvJarzzw5uwA-48" vertex="1" connectable="0">
                    <mxGeometry x="140" y="30" width="120" height="156" as="geometry"/>
                </mxCell>
                <mxCell id="2ZWv6kr2MvJarzzw5uwA-8" value="&lt;div&gt;master2&lt;/div&gt;&lt;div&gt;192.169.100.22&lt;/div&gt;" style="text;html=1;align=center;verticalAlign=middle;resizable=0;points=[];autosize=1;strokeColor=none;fillColor=none;" parent="2ZWv6kr2MvJarzzw5uwA-31" vertex="1">
                    <mxGeometry x="6" y="105" width="100" height="30" as="geometry"/>
                </mxCell>
                <mxCell id="2ZWv6kr2MvJarzzw5uwA-18" value="scheduler" style="rounded=0;whiteSpace=wrap;html=1;" parent="2ZWv6kr2MvJarzzw5uwA-31" vertex="1">
                    <mxGeometry y="60" width="120" height="20" as="geometry"/>
                </mxCell>
                <mxCell id="2ZWv6kr2MvJarzzw5uwA-19" value="c-c-m" style="rounded=0;whiteSpace=wrap;html=1;" parent="2ZWv6kr2MvJarzzw5uwA-31" vertex="1">
                    <mxGeometry y="40" width="120" height="20" as="geometry"/>
                </mxCell>
                <mxCell id="2ZWv6kr2MvJarzzw5uwA-20" value="etcd" style="rounded=0;whiteSpace=wrap;html=1;" parent="2ZWv6kr2MvJarzzw5uwA-31" vertex="1">
                    <mxGeometry y="80" width="120" height="20" as="geometry"/>
                </mxCell>
                <mxCell id="2ZWv6kr2MvJarzzw5uwA-21" value="haproxy" style="rounded=0;whiteSpace=wrap;html=1;" parent="2ZWv6kr2MvJarzzw5uwA-31" vertex="1">
                    <mxGeometry y="20" width="120" height="20" as="geometry"/>
                </mxCell>
                <mxCell id="2ZWv6kr2MvJarzzw5uwA-22" value="keepalived" style="rounded=0;whiteSpace=wrap;html=1;" parent="2ZWv6kr2MvJarzzw5uwA-31" vertex="1">
                    <mxGeometry width="120" height="20" as="geometry"/>
                </mxCell>
                <mxCell id="2ZWv6kr2MvJarzzw5uwA-32" value="" style="group" parent="2ZWv6kr2MvJarzzw5uwA-48" vertex="1" connectable="0">
                    <mxGeometry x="274" y="30" width="120" height="156" as="geometry"/>
                </mxCell>
                <mxCell id="2ZWv6kr2MvJarzzw5uwA-11" value="&lt;div&gt;master3&lt;/div&gt;&lt;div&gt;192.169.100.23&lt;/div&gt;" style="text;html=1;align=center;verticalAlign=middle;resizable=0;points=[];autosize=1;strokeColor=none;fillColor=none;" parent="2ZWv6kr2MvJarzzw5uwA-32" vertex="1">
                    <mxGeometry x="12" y="105" width="100" height="30" as="geometry"/>
                </mxCell>
                <mxCell id="2ZWv6kr2MvJarzzw5uwA-23" value="scheduler" style="rounded=0;whiteSpace=wrap;html=1;" parent="2ZWv6kr2MvJarzzw5uwA-32" vertex="1">
                    <mxGeometry y="60" width="120" height="20" as="geometry"/>
                </mxCell>
                <mxCell id="2ZWv6kr2MvJarzzw5uwA-24" value="c-c-m" style="rounded=0;whiteSpace=wrap;html=1;" parent="2ZWv6kr2MvJarzzw5uwA-32" vertex="1">
                    <mxGeometry y="40" width="120" height="20" as="geometry"/>
                </mxCell>
                <mxCell id="2ZWv6kr2MvJarzzw5uwA-25" value="etcd" style="rounded=0;whiteSpace=wrap;html=1;" parent="2ZWv6kr2MvJarzzw5uwA-32" vertex="1">
                    <mxGeometry y="80" width="120" height="20" as="geometry"/>
                </mxCell>
                <mxCell id="2ZWv6kr2MvJarzzw5uwA-26" value="haproxy" style="rounded=0;whiteSpace=wrap;html=1;" parent="2ZWv6kr2MvJarzzw5uwA-32" vertex="1">
                    <mxGeometry y="20" width="120" height="20" as="geometry"/>
                </mxCell>
                <mxCell id="2ZWv6kr2MvJarzzw5uwA-27" value="keepalived" style="rounded=0;whiteSpace=wrap;html=1;" parent="2ZWv6kr2MvJarzzw5uwA-32" vertex="1">
                    <mxGeometry width="120" height="20" as="geometry"/>
                </mxCell>
                <mxCell id="2ZWv6kr2MvJarzzw5uwA-33" value="VIP 192.169.100.24" style="text;html=1;align=center;verticalAlign=middle;resizable=0;points=[];autosize=1;strokeColor=none;fillColor=none;" parent="2ZWv6kr2MvJarzzw5uwA-48" vertex="1">
                    <mxGeometry x="130" width="120" height="20" as="geometry"/>
                </mxCell>
                <mxCell id="2ZWv6kr2MvJarzzw5uwA-29" value="" style="rounded=1;whiteSpace=wrap;html=1;fillColor=#fff2cc;arcSize=9;dashed=1;strokeColor=#000000;gradientColor=none;glass=0;shadow=0;sketch=0;opacity=40;" parent="2ZWv6kr2MvJarzzw5uwA-48" vertex="1">
                    <mxGeometry y="20" width="400" height="50" as="geometry"/>
                </mxCell>
            </root>
        </mxGraphModel>
    </diagram>
    <diagram id="75XqB0GVVK60GQL8g1G7" name="Workload Loadbalance">
        <mxGraphModel dx="924" dy="763" grid="1" gridSize="10" guides="1" tooltips="1" connect="1" arrows="1" fold="1" page="1" pageScale="1" pageWidth="827" pageHeight="1169" math="0" shadow="0">
            <root>
                <mxCell id="eyNBZvg85CgkurjRY9py-0"/>
                <mxCell id="eyNBZvg85CgkurjRY9py-1" parent="eyNBZvg85CgkurjRY9py-0"/>
                <mxCell id="zmPzxSt9Y9VKzqaHsBe5-0" value="" style="rounded=0;whiteSpace=wrap;html=1;" vertex="1" parent="eyNBZvg85CgkurjRY9py-1">
                    <mxGeometry x="184.5" y="175" width="145" height="270" as="geometry"/>
                </mxCell>
                <mxCell id="zmPzxSt9Y9VKzqaHsBe5-1" value="" style="rounded=0;whiteSpace=wrap;html=1;" vertex="1" parent="eyNBZvg85CgkurjRY9py-1">
                    <mxGeometry x="335" y="175" width="145" height="270" as="geometry"/>
                </mxCell>
                <mxCell id="zmPzxSt9Y9VKzqaHsBe5-2" value="" style="rounded=0;whiteSpace=wrap;html=1;" vertex="1" parent="eyNBZvg85CgkurjRY9py-1">
                    <mxGeometry x="487" y="175" width="145" height="270" as="geometry"/>
                </mxCell>
                <mxCell id="zmPzxSt9Y9VKzqaHsBe5-3" value="" style="rounded=1;whiteSpace=wrap;html=1;fillColor=#fff2cc;arcSize=3;dashed=1;strokeColor=#000000;glass=0;shadow=0;sketch=0;opacity=40;" vertex="1" parent="eyNBZvg85CgkurjRY9py-1">
                    <mxGeometry x="180" y="150" width="460" height="195" as="geometry"/>
                </mxCell>
                <mxCell id="zmPzxSt9Y9VKzqaHsBe5-4" value="" style="edgeStyle=none;html=1;" edge="1" parent="eyNBZvg85CgkurjRY9py-1" source="zmPzxSt9Y9VKzqaHsBe5-5" target="zmPzxSt9Y9VKzqaHsBe5-15">
                    <mxGeometry relative="1" as="geometry"/>
                </mxCell>
                <mxCell id="zmPzxSt9Y9VKzqaHsBe5-5" value="keepalived&lt;br&gt;MASTER" style="rounded=0;whiteSpace=wrap;html=1;" vertex="1" parent="eyNBZvg85CgkurjRY9py-1">
                    <mxGeometry x="197" y="185" width="120" height="35" as="geometry"/>
                </mxCell>
                <mxCell id="zmPzxSt9Y9VKzqaHsBe5-6" value="keepalived&lt;br&gt;BACKUP" style="rounded=0;whiteSpace=wrap;html=1;" vertex="1" parent="eyNBZvg85CgkurjRY9py-1">
                    <mxGeometry x="347" y="185" width="120" height="35" as="geometry"/>
                </mxCell>
                <mxCell id="zmPzxSt9Y9VKzqaHsBe5-7" value="keepalived&lt;br&gt;BACKUP" style="rounded=0;whiteSpace=wrap;html=1;" vertex="1" parent="eyNBZvg85CgkurjRY9py-1">
                    <mxGeometry x="502" y="185" width="120" height="35" as="geometry"/>
                </mxCell>
                <mxCell id="zmPzxSt9Y9VKzqaHsBe5-8" value="&lt;div&gt;master1&lt;br&gt;&lt;/div&gt;&lt;div&gt;192.169.100.21&lt;/div&gt;" style="text;html=1;align=center;verticalAlign=middle;resizable=0;points=[];autosize=1;strokeColor=none;fillColor=none;" vertex="1" parent="eyNBZvg85CgkurjRY9py-1">
                    <mxGeometry x="204.5" y="415" width="100" height="30" as="geometry"/>
                </mxCell>
                <mxCell id="zmPzxSt9Y9VKzqaHsBe5-9" value="&lt;div&gt;master2&lt;/div&gt;&lt;div&gt;192.169.100.22&lt;/div&gt;" style="text;html=1;align=center;verticalAlign=middle;resizable=0;points=[];autosize=1;strokeColor=none;fillColor=none;" vertex="1" parent="eyNBZvg85CgkurjRY9py-1">
                    <mxGeometry x="354.5" y="415" width="100" height="30" as="geometry"/>
                </mxCell>
                <mxCell id="zmPzxSt9Y9VKzqaHsBe5-10" value="&lt;div&gt;master3&lt;/div&gt;&lt;div&gt;192.169.100.23&lt;/div&gt;" style="text;html=1;align=center;verticalAlign=middle;resizable=0;points=[];autosize=1;strokeColor=none;fillColor=none;" vertex="1" parent="eyNBZvg85CgkurjRY9py-1">
                    <mxGeometry x="509.5" y="415" width="100" height="30" as="geometry"/>
                </mxCell>
                <mxCell id="zmPzxSt9Y9VKzqaHsBe5-11" value="VIP 192.169.100.24" style="text;html=1;align=center;verticalAlign=middle;resizable=0;points=[];autosize=1;strokeColor=none;fillColor=none;fontStyle=1" vertex="1" parent="eyNBZvg85CgkurjRY9py-1">
                    <mxGeometry x="197" y="155" width="120" height="20" as="geometry"/>
                </mxCell>
                <mxCell id="zmPzxSt9Y9VKzqaHsBe5-12" style="edgeStyle=orthogonalEdgeStyle;html=1;exitX=0.5;exitY=1;exitDx=0;exitDy=0;entryX=0.5;entryY=0;entryDx=0;entryDy=0;" edge="1" parent="eyNBZvg85CgkurjRY9py-1" source="zmPzxSt9Y9VKzqaHsBe5-15" target="zmPzxSt9Y9VKzqaHsBe5-17">
                    <mxGeometry relative="1" as="geometry"/>
                </mxCell>
                <mxCell id="zmPzxSt9Y9VKzqaHsBe5-13" style="edgeStyle=orthogonalEdgeStyle;html=1;exitX=0.5;exitY=1;exitDx=0;exitDy=0;entryX=0.5;entryY=0;entryDx=0;entryDy=0;" edge="1" parent="eyNBZvg85CgkurjRY9py-1" source="zmPzxSt9Y9VKzqaHsBe5-15" target="zmPzxSt9Y9VKzqaHsBe5-19">
                    <mxGeometry relative="1" as="geometry"/>
                </mxCell>
                <mxCell id="zmPzxSt9Y9VKzqaHsBe5-14" style="edgeStyle=orthogonalEdgeStyle;html=1;exitX=0.5;exitY=1;exitDx=0;exitDy=0;" edge="1" parent="eyNBZvg85CgkurjRY9py-1" source="zmPzxSt9Y9VKzqaHsBe5-15" target="zmPzxSt9Y9VKzqaHsBe5-22">
                    <mxGeometry relative="1" as="geometry"/>
                </mxCell>
                <mxCell id="zmPzxSt9Y9VKzqaHsBe5-15" value="HAProxy" style="rounded=0;whiteSpace=wrap;html=1;" vertex="1" parent="eyNBZvg85CgkurjRY9py-1">
                    <mxGeometry x="197" y="235" width="120" height="35" as="geometry"/>
                </mxCell>
                <mxCell id="zmPzxSt9Y9VKzqaHsBe5-16" style="edgeStyle=orthogonalEdgeStyle;html=1;exitX=0.5;exitY=1;exitDx=0;exitDy=0;entryX=0.5;entryY=0;entryDx=0;entryDy=0;" edge="1" parent="eyNBZvg85CgkurjRY9py-1" source="zmPzxSt9Y9VKzqaHsBe5-17" target="zmPzxSt9Y9VKzqaHsBe5-20">
                    <mxGeometry relative="1" as="geometry"/>
                </mxCell>
                <mxCell id="zmPzxSt9Y9VKzqaHsBe5-17" value="HAProxy" style="rounded=0;whiteSpace=wrap;html=1;" vertex="1" parent="eyNBZvg85CgkurjRY9py-1">
                    <mxGeometry x="347" y="305" width="120" height="35" as="geometry"/>
                </mxCell>
                <mxCell id="zmPzxSt9Y9VKzqaHsBe5-18" style="edgeStyle=orthogonalEdgeStyle;html=1;exitX=0.5;exitY=1;exitDx=0;exitDy=0;entryX=0.5;entryY=0;entryDx=0;entryDy=0;" edge="1" parent="eyNBZvg85CgkurjRY9py-1" source="zmPzxSt9Y9VKzqaHsBe5-19" target="zmPzxSt9Y9VKzqaHsBe5-21">
                    <mxGeometry relative="1" as="geometry"/>
                </mxCell>
                <mxCell id="zmPzxSt9Y9VKzqaHsBe5-19" value="HAProxy" style="rounded=0;whiteSpace=wrap;html=1;" vertex="1" parent="eyNBZvg85CgkurjRY9py-1">
                    <mxGeometry x="502" y="305" width="120" height="35" as="geometry"/>
                </mxCell>
                <mxCell id="zmPzxSt9Y9VKzqaHsBe5-20" value="kube-apiserver" style="rounded=0;whiteSpace=wrap;html=1;" vertex="1" parent="eyNBZvg85CgkurjRY9py-1">
                    <mxGeometry x="347" y="355" width="120" height="35" as="geometry"/>
                </mxCell>
                <mxCell id="zmPzxSt9Y9VKzqaHsBe5-21" value="kube-apiserver" style="rounded=0;whiteSpace=wrap;html=1;" vertex="1" parent="eyNBZvg85CgkurjRY9py-1">
                    <mxGeometry x="502" y="355" width="120" height="35" as="geometry"/>
                </mxCell>
                <mxCell id="zmPzxSt9Y9VKzqaHsBe5-22" value="kube-apiserver" style="rounded=0;whiteSpace=wrap;html=1;" vertex="1" parent="eyNBZvg85CgkurjRY9py-1">
                    <mxGeometry x="197" y="355" width="120" height="35" as="geometry"/>
                </mxCell>
                <mxCell id="zmPzxSt9Y9VKzqaHsBe5-23" style="edgeStyle=orthogonalEdgeStyle;html=1;" edge="1" parent="eyNBZvg85CgkurjRY9py-1" source="zmPzxSt9Y9VKzqaHsBe5-24" target="zmPzxSt9Y9VKzqaHsBe5-11">
                    <mxGeometry relative="1" as="geometry"/>
                </mxCell>
                <mxCell id="zmPzxSt9Y9VKzqaHsBe5-24" value="apiserver&lt;br&gt;Traffic" style="ellipse;whiteSpace=wrap;html=1;" vertex="1" parent="eyNBZvg85CgkurjRY9py-1">
                    <mxGeometry x="352" y="100" width="90" height="30" as="geometry"/>
                </mxCell>
                <mxCell id="zmPzxSt9Y9VKzqaHsBe5-25" value="apiserver&lt;br&gt;Loadbalancer" style="text;html=1;align=center;verticalAlign=middle;resizable=0;points=[];autosize=1;strokeColor=none;" vertex="1" parent="eyNBZvg85CgkurjRY9py-1">
                    <mxGeometry x="540" y="145" width="90" height="30" as="geometry"/>
                </mxCell>
            </root>
        </mxGraphModel>
    </diagram>
</mxfile>